<svg width="48" height="48" viewBox="0 0 48 48" fill="none" xmlns="http://www.w3.org/2000/svg">
<path fill-rule="evenodd" clip-rule="evenodd" d="M38 31.901V28H32.5049C32.036 28 31.8016 28 31.6041 28.0196C29.7081 28.2082 28.2082 29.7081 28.0196 31.6041C28 31.8016 28 32.036 28 32.5049C28 33.0644 28 33.3442 28.0249 33.5662C28.2664 35.7217 30.1818 37.2919 32.3428 37.1061C32.5654 37.0869 32.8397 37.0321 33.3884 36.9223L33.9807 36.8039C34.7415 36.6517 35.122 36.5756 35.443 36.4514C36.753 35.9447 37.7013 34.7881 37.9412 33.4041C38 33.065 38 32.677 38 31.901ZM18 35.901V32H12.5049C12.036 32 11.8016 32 11.6041 32.0196C9.70805 32.2082 8.20823 33.7081 8.01964 35.6041C8 35.8016 8 36.036 8 36.5049C8 37.0644 8 37.3442 8.02488 37.5662C8.26642 39.7217 10.1818 41.2919 12.3428 41.1061C12.5653 41.0869 12.8399 41.032 13.3884 40.9223L13.9806 40.8039C14.7415 40.6517 15.122 40.5756 15.443 40.4514C16.753 39.9447 17.7013 38.7881 17.9412 37.4041C18 37.065 18 36.677 18 35.901Z" fill="white"/>
<path d="M18 32V22M18 32V35.901M18 32H12.5049M38 28V18M38 28V31.901M38 28H32.5049M38 18L18 22M38 18V17.7584M18 22V18.5584M18 18.5584C18 15.4189 18 13.8492 18.9066 12.7433C19.8133 11.6373 21.3525 11.3295 24.4311 10.7138M18 18.5584V15.2792C18 13.7095 18 12.9246 18.4533 12.3716C18.9066 11.8187 19.6763 11.6647 21.2155 11.3569L24.4311 10.7138M18 18.5584V35.901M24.4311 10.7138L28.4311 9.91379M28.4311 9.91379C32.8583 9.02834 35.0719 8.58562 36.536 9.78585C38 10.9861 38 13.2435 38 17.7584M28.4311 9.91379L33.2155 8.95689C35.4291 8.51417 36.536 8.29281 37.268 8.89292C38 9.49304 38 10.6218 38 12.8792V17.7584M38 31.901C38 32.677 38 33.065 37.9412 33.4041C37.7013 34.7881 36.753 35.9447 35.443 36.4514C35.122 36.5756 34.7415 36.6517 33.9807 36.8039M38 31.901V32.7208C38 34.2905 38 35.0754 37.5467 35.6284C37.0934 36.1813 36.3237 36.3353 34.7845 36.6431L33.9807 36.8039M33.9807 36.8039L33.3884 36.9223M33.3884 36.9223C32.8397 37.0321 32.5654 37.0869 32.3428 37.1061C30.1818 37.2919 28.2664 35.7217 28.0249 33.5662C28 33.3442 28 33.0644 28 32.5049M33.3884 36.9223L32.7845 37.0431C30.5709 37.4858 29.464 37.7072 28.732 37.1071C28 36.507 28 35.3782 28 33.1208V32.5049M28 32.5049C28 32.036 28 31.8016 28.0196 31.6041C28.2082 29.7081 29.7081 28.2082 31.6041 28.0196C31.8016 28 32.036 28 32.5049 28M28 32.5049V32C28 30.1144 28 29.1716 28.5858 28.5858C29.1716 28 30.1144 28 32 28H32.5049M18 35.901C18 36.677 18 37.065 17.9412 37.4041C17.7013 38.7881 16.753 39.9447 15.443 40.4514C15.122 40.5756 14.7415 40.6517 13.9806 40.8039M18 35.901V36.7208C18 38.2905 18 39.0754 17.5467 39.6284C17.0934 40.1813 16.3237 40.3353 14.7845 40.6431L13.9806 40.8039M13.9806 40.8039L13.3884 40.9223M13.3884 40.9223C12.8399 41.032 12.5653 41.0869 12.3428 41.1061C10.1818 41.2919 8.26642 39.7217 8.02488 37.5662C8 37.3442 8 37.0644 8 36.5049M13.3884 40.9223L12.7845 41.0431C10.5709 41.4858 9.46404 41.7072 8.73202 41.1071C8 40.507 8 39.3782 8 37.1208V36.5049M8 36.5049C8 36.036 8 35.8016 8.01964 35.6041C8.20823 33.7081 9.70805 32.2082 11.6041 32.0196C11.8016 32 12.036 32 12.5049 32M8 36.5049V36C8 34.1144 8 33.1716 8.58579 32.5858C9.17157 32 10.1144 32 12 32H12.5049" stroke="white" stroke-width="2"/>
</svg>
